<svg width="20" height="20" viewBox="0 0 20 20" fill="none" xmlns="http://www.w3.org/2000/svg">
<path d="M15 5.96663C14.95 5.9583 14.8916 5.9583 14.8416 5.96663C13.6916 5.92496 12.775 4.98329 12.775 3.81663C12.775 2.62496 13.7333 1.66663 14.925 1.66663C16.1166 1.66663 17.075 2.63329 17.075 3.81663C17.0666 4.98329 16.15 5.92496 15 5.96663Z" stroke="#292D32" stroke-width="1.25" stroke-linecap="round" stroke-linejoin="round"/>
<path d="M14.1417 12.0331C15.2834 12.2247 16.5417 12.0247 17.425 11.4331C18.6 10.6497 18.6 9.3664 17.425 8.58306C16.5334 7.9914 15.2584 7.79139 14.1167 7.99139" stroke="#292D32" stroke-width="1.25" stroke-linecap="round" stroke-linejoin="round"/>
<path d="M4.97496 5.96651C5.02496 5.95817 5.0833 5.95817 5.1333 5.96651C6.2833 5.92484 7.19996 4.98317 7.19996 3.81651C7.19996 2.62484 6.24163 1.6665 5.04996 1.6665C3.8583 1.6665 2.89996 2.63317 2.89996 3.81651C2.9083 4.98317 3.82496 5.92484 4.97496 5.96651Z" stroke="#292D32" stroke-width="1.25" stroke-linecap="round" stroke-linejoin="round"/>
<path d="M5.83328 12.0331C4.69162 12.2247 3.43328 12.0247 2.54995 11.4331C1.37495 10.6497 1.37495 9.3664 2.54995 8.58306C3.44162 7.9914 4.71662 7.79139 5.85828 7.99139" stroke="#292D32" stroke-width="1.25" stroke-linecap="round" stroke-linejoin="round"/>
<path d="M9.99996 12.1918C9.94996 12.1835 9.89163 12.1835 9.84163 12.1918C8.69163 12.1502 7.77496 11.2085 7.77496 10.0418C7.77496 8.85018 8.7333 7.89185 9.92496 7.89185C11.1166 7.89185 12.075 8.85851 12.075 10.0418C12.0666 11.2085 11.15 12.1585 9.99996 12.1918Z" stroke="#292D32" stroke-width="1.25" stroke-linecap="round" stroke-linejoin="round"/>
<path d="M7.57498 14.8168C6.39998 15.6001 6.39998 16.8835 7.57498 17.6668C8.90831 18.5585 11.0916 18.5585 12.425 17.6668C13.6 16.8835 13.6 15.6001 12.425 14.8168C11.1 13.9335 8.90831 13.9335 7.57498 14.8168Z" stroke="#292D32" stroke-width="1.25" stroke-linecap="round" stroke-linejoin="round"/>
</svg>
