<svg width="20" height="20" viewBox="0 0 20 20" fill="none" xmlns="http://www.w3.org/2000/svg">
<path d="M10.8333 9.29163H5.83331" stroke="#292D32" stroke-width="1.25" stroke-linecap="round" stroke-linejoin="round"/>
<path d="M1.66669 9.29182V5.44182C1.66669 3.74182 3.04169 2.36682 4.74169 2.36682H9.42502C11.125 2.36682 12.5 3.42515 12.5 5.12515" stroke="#292D32" stroke-width="1.25" stroke-linecap="round" stroke-linejoin="round"/>
<path d="M14.5667 10.1667C14.15 10.5667 13.95 11.1833 14.1167 11.8166C14.325 12.5916 15.0917 13.0833 15.8917 13.0833H16.6667V14.2917C16.6667 16.1333 15.175 17.625 13.3334 17.625H5.00002C3.15835 17.625 1.66669 16.1333 1.66669 14.2917V8.45833C1.66669 6.61667 3.15835 5.125 5.00002 5.125H13.3334C15.1667 5.125 16.6667 6.625 16.6667 8.45833V9.66663H15.7667C15.3 9.66663 14.875 9.84999 14.5667 10.1667Z" stroke="#292D32" stroke-width="1.25" stroke-linecap="round" stroke-linejoin="round"/>
<path d="M18.3333 10.5166V12.2333C18.3333 12.7 17.95 13.0833 17.475 13.0833H15.8667C14.9667 13.0833 14.1417 12.425 14.0667 11.525C14.0167 11 14.2167 10.5083 14.5667 10.1667C14.875 9.84999 15.3 9.66663 15.7667 9.66663H17.475C17.95 9.66663 18.3333 10.05 18.3333 10.5166Z" stroke="#292D32" stroke-width="1.25" stroke-linecap="round" stroke-linejoin="round"/>
</svg>
