<svg width="56" height="56" viewBox="0 0 56 56" fill="none" xmlns="http://www.w3.org/2000/svg">
<rect width="56" height="56" rx="28" fill="#E0E4D9"/>
<path fill-rule="evenodd" clip-rule="evenodd" d="M34.0862 23.5766C34.0862 26.9327 31.3656 29.6533 28.0095 29.6533C24.6535 29.6533 21.9329 26.9327 21.9329 23.5766C21.9329 20.2206 24.6535 17.5 28.0095 17.5C31.3656 17.5 34.0862 20.2206 34.0862 23.5766ZM30.7564 30.64C33.583 29.54 35.5862 26.7923 35.5862 23.5766C35.5862 19.3922 32.194 16 28.0095 16C23.8251 16 20.4329 19.3922 20.4329 23.5766C20.4329 26.7919 22.4357 29.5394 25.2618 30.6396C21.1503 31.81 18.1178 35.5423 18 40.0007H19.5006C19.6429 35.4244 23.3975 31.7582 28.0084 31.7582C32.6193 31.7582 36.3739 35.4244 36.5162 40.0007H38.0169C37.8991 35.5427 34.8672 31.8108 30.7564 30.64Z" fill="#0E0F0C"/>
</svg>
