<svg width="16" height="16" viewBox="0 0 16 16" fill="none" xmlns="http://www.w3.org/2000/svg">
<path d="M9.3335 10.6666C9.3335 11.8466 8.82016 12.9133 8.00016 13.64C7.2935 14.28 6.36016 14.6666 5.3335 14.6666C3.12683 14.6666 1.3335 12.8733 1.3335 10.6666C1.3335 8.82664 2.58683 7.26664 4.28016 6.80664C4.74016 7.96664 5.72683 8.85997 6.94683 9.19331C7.28016 9.28664 7.6335 9.33331 8.00016 9.33331C8.36683 9.33331 8.72016 9.28664 9.0535 9.19331C9.2335 9.64664 9.3335 10.1466 9.3335 10.6666Z" stroke="#292D32" stroke-width="1.25" stroke-linecap="round" stroke-linejoin="round"/>
<path d="M12 5.33337C12 5.85337 11.9 6.35337 11.72 6.80671C11.26 7.96671 10.2733 8.86004 9.05333 9.19337C8.72 9.28671 8.36667 9.33337 8 9.33337C7.63333 9.33337 7.28 9.28671 6.94667 9.19337C5.72667 8.86004 4.74 7.96671 4.28 6.80671C4.1 6.35337 4 5.85337 4 5.33337C4 3.12671 5.79333 1.33337 8 1.33337C10.2067 1.33337 12 3.12671 12 5.33337Z" stroke="#292D32" stroke-width="1.25" stroke-linecap="round" stroke-linejoin="round"/>
<path d="M14.6667 10.6666C14.6667 12.8733 12.8733 14.6666 10.6667 14.6666C9.64 14.6666 8.70667 14.28 8 13.64C8.82 12.9133 9.33333 11.8466 9.33333 10.6666C9.33333 10.1466 9.23333 9.64664 9.05333 9.19331C10.2733 8.85997 11.26 7.96664 11.72 6.80664C13.4133 7.26664 14.6667 8.82664 14.6667 10.6666Z" stroke="#292D32" stroke-width="1.25" stroke-linecap="round" stroke-linejoin="round"/>
</svg>
